<?xml version="1.0" standalone="no"?>
<!DOCTYPE svg PUBLIC "-//W3C//DTD SVG 20010904//EN"
 "http://www.w3.org/TR/2001/REC-SVG-20010904/DTD/svg10.dtd">
<svg version="1.0" xmlns="http://www.w3.org/2000/svg"
 width="512.000000pt" height="512.000000pt" viewBox="0 0 512.000000 512.000000"
 preserveAspectRatio="xMidYMid meet">

<g transform="translate(0.000000,512.000000) scale(0.100000,-0.100000)"
fill="#000000" stroke="none">
<path d="M220 4582 c0 -5 183 -326 406 -713 696 -1206 1644 -2853 1785 -3101
74 -131 139 -237 146 -238 18 0 50 47 176 260 327 557 2167 3775 2167 3791 0
5 -913 9 -2340 9 -1287 0 -2340 -4 -2340 -8z m2264 -61 c-5 -4 -249 -142 -542
-305 l-532 -298 -533 302 c-292 167 -534 304 -536 306 -2 2 481 4 1074 4 602
0 1075 -4 1069 -9z m2271 -9 c-118 -72 -1034 -592 -1042 -592 -11 0 -1031 585
-1047 601 -6 5 426 9 1055 9 1034 0 1063 -1 1034 -18z m-1598 -303 c288 -166
523 -305 523 -308 0 -8 -512 -301 -525 -301 -5 1 -73 112 -150 247 -77 135
-195 340 -261 455 -67 114 -119 208 -116 208 3 0 241 -136 529 -301z m-2287
-10 l530 -301 0 -626 c0 -344 -2 -623 -4 -621 -4 4 -1036 1793 -1057 1830 -5
11 -7 19 -5 19 3 0 244 -135 536 -301z m3884 234 c-21 -38 -247 -435 -502
-883 -256 -448 -476 -836 -491 -862 -14 -26 -29 -48 -34 -48 -4 0 -6 282 -5
628 l3 627 525 302 c289 166 529 302 533 302 5 1 -8 -29 -29 -66z m-2267 50
c-3 -5 -116 -201 -252 -438 -135 -236 -250 -434 -255 -438 -4 -5 -128 60 -275
143 -147 84 -263 156 -258 160 12 12 1027 579 1036 580 5 0 6 -3 4 -7z m385
-517 c126 -219 226 -402 221 -406 -4 -4 -109 -64 -233 -135 -124 -70 -240
-136 -257 -147 l-33 -20 0 614 0 613 36 -60 c20 -33 140 -240 266 -459z m-324
-394 l-3 -299 -257 146 c-172 97 -256 150 -253 159 3 7 119 211 257 453 l253
439 3 -300 c1 -165 1 -434 0 -598z m-852 158 c137 -78 253 -146 258 -150 5 -5
-101 -199 -247 -453 -141 -245 -259 -452 -263 -461 -3 -9 -10 -16 -15 -16 -5
0 -9 261 -9 616 0 506 2 615 13 611 7 -3 126 -69 263 -147z m2002 -779 l-3
-310 -260 455 c-143 251 -260 462 -260 470 0 8 110 77 260 163 l260 148 3
-308 c1 -170 1 -448 0 -618z m-1423 450 c138 -78 254 -146 258 -150 6 -6 -843
-502 -1011 -590 l-23 -12 18 34 c52 99 498 865 503 862 3 -1 118 -67 255 -144z
m1085 -288 c134 -236 245 -432 248 -438 3 -5 -14 2 -39 16 -24 15 -252 144
-507 289 -255 145 -459 267 -455 271 11 11 496 289 504 289 4 0 116 -192 249
-427z m-208 -211 c269 -152 488 -280 488 -284 0 -5 -241 -8 -535 -8 l-535 0 0
311 0 311 48 -27 c26 -14 266 -151 534 -303z m-605 -289 c-2 -2 -241 -2 -530
-1 l-527 3 527 302 528 302 3 -301 c1 -166 1 -303 -1 -305z m3 -438 c0 -206
-3 -375 -6 -375 -9 0 -1044 739 -1044 745 0 3 236 5 525 5 l525 0 0 -375z
m1065 366 c-12 -10 -1015 -725 -1032 -735 -10 -6 -13 71 -13 368 l0 376 527 0
c291 0 523 -4 518 -9z m62 2 c-530 -930 -1095 -1903 -1103 -1903 -2 0 -4 254
-4 564 l0 564 548 391 c301 215 551 391 555 391 5 0 6 -3 4 -7z m-1619 -428
l491 -350 0 -557 c1 -307 -1 -558 -4 -558 -2 0 -14 17 -24 39 -16 30 -916
1599 -1040 1811 l-26 45 56 -40 c31 -22 278 -197 547 -390z"/>
</g>
</svg>
